<svg xmlns="http://www.w3.org/2000/svg" width="720" height="326" font-family="-apple-system, Segoe UI, sans-serif" font-size="13">
<rect width="720" height="326" rx="10" fill="#0d1117"/>
<text x="20" y="28" font-size="15" font-weight="bold" fill="#e6edf3">Most-linked sources</text>
<text x="200" y="62" text-anchor="end" fill="#8b949e">github.com</text>
<rect x="210" y="46" width="440" height="22" rx="4" fill="#58a6ff"/>
<text x="658" y="62" fill="#e6edf3">599</text>
<text x="200" y="96" text-anchor="end" fill="#8b949e">arxiv.org</text>
<rect x="210" y="80" width="61" height="22" rx="4" fill="#58a6ff"/>
<text x="279" y="96" fill="#e6edf3">84</text>
<text x="200" y="130" text-anchor="end" fill="#8b949e">youtube.com</text>
<rect x="210" y="114" width="22" height="22" rx="4" fill="#58a6ff"/>
<text x="240" y="130" fill="#e6edf3">31</text>
<text x="200" y="164" text-anchor="end" fill="#8b949e">lwn.net</text>
<rect x="210" y="148" width="21" height="22" rx="4" fill="#58a6ff"/>
<text x="239" y="164" fill="#e6edf3">29</text>
<text x="200" y="198" text-anchor="end" fill="#8b949e">spectrum.ieee.org</text>
<rect x="210" y="182" width="21" height="22" rx="4" fill="#58a6ff"/>
<text x="239" y="198" fill="#e6edf3">29</text>
<text x="200" y="232" text-anchor="end" fill="#8b949e">anthropic.com</text>
<rect x="210" y="216" width="19" height="22" rx="4" fill="#58a6ff"/>
<text x="237" y="232" fill="#e6edf3">27</text>
<text x="200" y="266" text-anchor="end" fill="#8b949e">twitter.com</text>
<rect x="210" y="250" width="19" height="22" rx="4" fill="#58a6ff"/>
<text x="237" y="266" fill="#e6edf3">27</text>
<text x="200" y="300" text-anchor="end" fill="#8b949e">simonwillison.net</text>
<rect x="210" y="284" width="18" height="22" rx="4" fill="#58a6ff"/>
<text x="236" y="300" fill="#e6edf3">25</text>
</svg>